<svg xmlns="http://www.w3.org/2000/svg" viewBox="0 0 800 530"><filter id="b"><feGaussianBlur stdDeviation="12" /></filter><path d="M0 0h8e2v530H0z" fill="#758576" /><g filter="url(#b)" transform="scale(3.125000) translate(0.5 0.5)"><g transform="translate(99.803025 34.195878) rotate(92.495050) scale(66.873056 99.994907)"><ellipse fill="#fff" fill-opacity=".501961" cx="0" cy="0" rx="1" ry="1" /></g><g transform="translate(235.975945 128.371864) rotate(180.469545) scale(30.764314 255.000000)"><ellipse fill="#000" fill-opacity=".501961" cx="0" cy="0" rx="1" ry="1" /></g><g transform="translate(97.962124 153.571932) rotate(359.262399) scale(109.172697 33.495412)"><ellipse fill="#000" fill-opacity=".501961" cx="0" cy="0" rx="1" ry="1" /></g><ellipse fill="#ffffe8" fill-opacity=".501961" cx="195" cy="82" rx="28" ry="28" /><g transform="translate(88.497022 137.467833) rotate(250.942021) scale(28.907638 71.061268)"><ellipse fill="#001400" fill-opacity=".501961" cx="0" cy="0" rx="1" ry="1" /></g><ellipse fill="#000a00" fill-opacity=".501961" cx="238" cy="26" rx="43" ry="50" /><ellipse fill="#f3ffff" fill-opacity=".501961" cx="75" cy="45" rx="35" ry="35" /><g transform="translate(147.803747 26.518875) rotate(162.011064) scale(34.041835 60.624691)"><ellipse fill="azure" fill-opacity=".501961" cx="0" cy="0" rx="1" ry="1" /></g></g></svg>