<svg xmlns="http://www.w3.org/2000/svg" viewBox="0 0 800 530"><filter id="b"><feGaussianBlur stdDeviation="12" /></filter><path d="M0 0h8e2v530H0z" fill="#88a9b2" /><g filter="url(#b)" transform="scale(3.125000) translate(0.5 0.5)"><g transform="translate(6.208220 137.311401) rotate(19.995667) scale(54.391792 21.523496)"><ellipse fill="#180000" fill-opacity=".501961" cx="0" cy="0" rx="1" ry="1" /></g><ellipse fill="#fdfffc" fill-opacity=".501961" cx="147" cy="123" rx="107" ry="39" /><g transform="translate(69.048712 0.000000) rotate(254.771840) scale(56.216346 174.891444)"><ellipse fill="#156388" fill-opacity=".501961" cx="0" cy="0" rx="1" ry="1" /></g><g transform="translate(248 168) rotate(301) scale(69 32)"><path d="M0 0h8e2v530H0z" fill="#000" /></g><ellipse fill="#8a3300" fill-opacity=".501961" cx="100" cy="37" rx="26" ry="11" /><g transform="translate(215.647502 13.634538) rotate(98.051765) scale(32.638701 153.922743)"><ellipse fill="#4893ba" fill-opacity=".501961" cx="0" cy="0" rx="1" ry="1" /></g><path fill="#432000" fill-opacity=".501961" d="M143.628331 145.333957 150.79049 184 149.269831 118.529154 143.313513 43.981571z" /><g transform="translate(0.000000 150.036789) rotate(72.337929) scale(18.738536 49.596263)"><ellipse fill="#332e00" fill-opacity=".501961" cx="0" cy="0" rx="1" ry="1" /></g></g></svg>