<svg xmlns="http://www.w3.org/2000/svg" viewBox="0 0 534 800"><filter id="b"><feGaussianBlur stdDeviation="12" /></filter><path d="M0 0h534v8e2H0z" fill="#4c6e88" /><g filter="url(#b)" transform="scale(3.125000) translate(0.5 0.5)"><ellipse fill="#000800" fill-opacity=".501961" cx="73" cy="228" rx="56" ry="77" /><g transform="translate(19 102) rotate(285) scale(101 87)"><path d="M0 0h534v8e2H0z" fill="#6ac5ff" /></g><ellipse fill="#629ce3" fill-opacity=".501961" cx="158" cy="43" rx="48" ry="220" /><g transform="translate(47.719467 16.342895) rotate(212.919547) scale(32.988042 13.289838)"><ellipse fill="#ed424c" fill-opacity=".501961" cx="0" cy="0" rx="1" ry="1" /></g><g transform="translate(55 146) rotate(76) scale(69 19)"><path d="M0 0h534v8e2H0z" fill="#2496fb" /></g><ellipse fill="#241a00" fill-opacity=".501961" cx="151" cy="190" rx="7" ry="38" /><ellipse fill="#a4b5bb" fill-opacity=".501961" cx="23" cy="55" rx="56" ry="26" /><path fill="#1b2624" fill-opacity=".501961" d="M114 40 93 106 64-16z" /></g></svg>