<svg xmlns="http://www.w3.org/2000/svg" viewBox="0 0 800 533"><filter id="b"><feGaussianBlur stdDeviation="12" /></filter><path d="M0 0h8e2v533H0z" fill="#5a5e6a" /><g filter="url(#b)" transform="scale(3.125000) translate(0.5 0.5)"><g transform="translate(85.522367 169.000000) rotate(-65.544921) scale(44.808272 109.764669)"><ellipse fill="#ffffe7" fill-opacity=".501961" cx="0" cy="0" rx="1" ry="1" /></g><g transform="translate(66.168183 31.799602) rotate(356.639927) scale(103.515500 53.889315)"><ellipse fill="#000a00" fill-opacity=".501961" cx="0" cy="0" rx="1" ry="1" /></g><ellipse fill="#000" fill-opacity=".501961" cx="232" cy="161" rx="34" ry="34" /><g transform="translate(171.451914 83.341739) rotate(250.153260) scale(22.606811 81.030648)"><ellipse fill="#a469da" fill-opacity=".501961" cx="0" cy="0" rx="1" ry="1" /></g><g transform="translate(177.491990 137.039938) rotate(252.269365) scale(26.585008 27.958948)"><ellipse fill="#9e88f7" fill-opacity=".501961" cx="0" cy="0" rx="1" ry="1" /></g><ellipse fill="#000f1c" fill-opacity=".501961" cx="251" cy="21" rx="49" ry="35" /><path d="M0 0h8e2v533H0z" fill="#f4ffdc" /><ellipse fill="#af89ff" fill-opacity=".501961" cx="236" cy="99" rx="29" ry="13" /></g></svg>