<svg xmlns="http://www.w3.org/2000/svg" viewBox="0 0 800 533"><filter id="b"><feGaussianBlur stdDeviation="12" /></filter><path d="M0 0h8e2v533H0z" fill="#335355" /><g filter="url(#b)" transform="scale(3.125000) translate(0.5 0.5)"><ellipse fill="#dff" fill-opacity=".501961" cx="49" cy="19" rx="104" ry="66" /><g transform="translate(155.229228 138.134277) rotate(340.720309) scale(168.293588 96.540716)"><ellipse fill="#000" fill-opacity=".501961" cx="0" cy="0" rx="1" ry="1" /></g><ellipse fill="#a3feff" fill-opacity=".501961" cx="45" cy="34" rx="66" ry="55" /><g transform="translate(157.497040 0.000000) rotate(122.132121) scale(16.967317 67.317327)"><ellipse fill="#9efbff" fill-opacity=".501961" cx="0" cy="0" rx="1" ry="1" /></g><g transform="translate(219.758571 119.995899) rotate(464.149646) scale(66.961447 82.105672)"><ellipse fill="#000" fill-opacity=".501961" cx="0" cy="0" rx="1" ry="1" /></g><g transform="translate(120.889669 69.209175) rotate(234.369972) scale(27.363667 29.445722)"><ellipse fill="#166454" fill-opacity=".501961" cx="0" cy="0" rx="1" ry="1" /></g><path fill="#9ddeff" fill-opacity=".501961" d="M226-16-3 1-16 107z" /><ellipse fill="#000500" fill-opacity=".501961" cx="64" cy="134" rx="44" ry="44" /></g></svg>