<svg xmlns="http://www.w3.org/2000/svg" viewBox="0 0 800 533"><filter id="b"><feGaussianBlur stdDeviation="12" /></filter><path d="M0 0h8e2v533H0z" fill="#6b9abe" /><g filter="url(#b)" transform="scale(3.125000) translate(0.5 0.5)"><g transform="translate(142 35) rotate(0) scale(255 78)"><path d="M0 0h8e2v533H0z" fill="#5ab9ff" /></g><ellipse fill="#7e8671" fill-opacity=".501961" cx="135" cy="129" rx="255" ry="56" /><g transform="translate(195 141) rotate(190) scale(186 5)"><path d="M0 0h8e2v533H0z" fill="#000" /></g><ellipse fill="#0f4260" fill-opacity=".501961" cx="161" cy="81" rx="255" ry="7" /><g transform="translate(85.361679 153.050036) rotate(106.187925) scale(8.283706 107.270917)"><ellipse fill="#dcdbc8" fill-opacity=".501961" cx="0" cy="0" rx="1" ry="1" /></g><g transform="translate(101.465372 108.146852) rotate(187.326066) scale(60.423812 13.258145)"><ellipse fill="#b1ccd3" fill-opacity=".501961" cx="0" cy="0" rx="1" ry="1" /></g><ellipse fill="#86cbff" fill-opacity=".501961" cx="95" cy="57" rx="71" ry="21" /><ellipse fill="#000" fill-opacity=".501961" cx="1" cy="51" rx="13" ry="7" /></g></svg>