<svg xmlns="http://www.w3.org/2000/svg" viewBox="0 0 800 1200"><filter id="b"><feGaussianBlur stdDeviation="12" /></filter><path d="M0 0h8e2v12e2H0z" fill="#2a71b7" /><g filter="url(#b)" transform="scale(4.687500) translate(0.5 0.5)"><ellipse fill="#4c6d61" fill-opacity=".501961" cx="0" cy="75" rx="27" ry="206" /><ellipse fill="#237ee9" fill-opacity=".501961" cx="105" cy="133" rx="79" ry="79" /><g transform="translate(13.981768 123.067942) rotate(98.316981) scale(38.871712 5.385330)"><ellipse fill="#c3e0d4" fill-opacity=".501961" cx="0" cy="0" rx="1" ry="1" /></g><g transform="translate(113.478318 3.489431) rotate(14.689858) scale(138.720368 36.242192)"><ellipse fill="#114494" fill-opacity=".501961" cx="0" cy="0" rx="1" ry="1" /></g><g transform="translate(56.181777 224.771765) rotate(299.615359) scale(5.591424 81.824729)"><ellipse fill="#305843" fill-opacity=".501961" cx="0" cy="0" rx="1" ry="1" /></g><g transform="translate(39.384665 26.043594) rotate(283.968589) scale(45.513829 2.708378)"><ellipse fill="#cfd7b2" fill-opacity=".501961" cx="0" cy="0" rx="1" ry="1" /></g><ellipse fill="#053d70" fill-opacity=".501961" cx="0" cy="230" rx="18" ry="81" /><path fill="#517b86" fill-opacity=".501961" d="M51.176636 186.574592 66.28651 252.222554 37.142085 271 7.758368 246.957508z" /></g></svg>