<svg xmlns="http://www.w3.org/2000/svg" viewBox="0 0 533 800"><filter id="b"><feGaussianBlur stdDeviation="12" /></filter><path d="M0 0h533v8e2H0z" fill="#316689" /><g filter="url(#b)" transform="scale(3.125000) translate(0.5 0.5)"><ellipse fill="#3ba8ff" fill-opacity=".501961" cx="87" cy="75" rx="169" ry="54" /><g transform="translate(94.234377 221.825238) rotate(0.366046) scale(150.531081 63.237202)"><ellipse fill="#291d00" fill-opacity=".501961" cx="0" cy="0" rx="1" ry="1" /></g><ellipse fill="#71ccf6" fill-opacity=".501961" cx="52" cy="107" rx="141" ry="21" /><g transform="translate(86 5) rotate(273) scale(120 208)"><path d="M0 0h533v8e2H0z" fill="#0849be" /></g><g transform="translate(37.582186 139.886240) rotate(179.657901) scale(64.563868 19.071261)"><ellipse fill="#619ba1" fill-opacity=".501961" cx="0" cy="0" rx="1" ry="1" /></g><g transform="translate(78.059908 241.896757) rotate(-0.138615) scale(169.000000 48.363160)"><ellipse fill="#27371f" fill-opacity=".501961" cx="0" cy="0" rx="1" ry="1" /></g><g transform="translate(131.640273 132.568596) rotate(92.524043) scale(6.045641 76.375665)"><ellipse fill="#25483d" fill-opacity=".501961" cx="0" cy="0" rx="1" ry="1" /></g><path fill="#d2f5e1" fill-opacity=".501961" d="M166.888747 149.880128 184.521624 145.85303 125.428545 141.237843 113.168028 143.805762z" /></g></svg>