<svg xmlns="http://www.w3.org/2000/svg" viewBox="0 0 800 533"><filter id="b"><feGaussianBlur stdDeviation="12" /></filter><path d="M0 0h8e2v533H0z" fill="#4c6967" /><g filter="url(#b)" transform="scale(3.125000) translate(0.5 0.5)"><g transform="translate(255.000000 122.714873) rotate(87.073805) scale(60.152777 30.628407)"><ellipse fill="#fff" fill-opacity=".501961" cx="0" cy="0" rx="1" ry="1" /></g><g transform="translate(101.395760 86.342896) rotate(352.850711) scale(76.311706 26.604937)"><ellipse fill="#93aeeb" fill-opacity=".501961" cx="0" cy="0" rx="1" ry="1" /></g><g transform="translate(85.782984 15.350140) rotate(66.854701) scale(21.630781 181.789316)"><ellipse fill="#001f00" fill-opacity=".501961" cx="0" cy="0" rx="1" ry="1" /></g><ellipse fill="#091230" fill-opacity=".501961" cx="63" cy="141" rx="110" ry="32" /><ellipse fill="#59b300" fill-opacity=".501961" cx="242" cy="12" rx="53" ry="53" /><ellipse fill="#bab1ff" fill-opacity=".501961" cx="208" cy="137" rx="17" ry="17" /><g transform="translate(202.032638 65.199831) rotate(101.948241) scale(25.831977 13.611798)"><ellipse fill="#b2c9f1" fill-opacity=".501961" cx="0" cy="0" rx="1" ry="1" /></g><g transform="translate(5.414113 142.369666) rotate(185.584958) scale(19.190591 116.285823)"><ellipse fill="#167500" fill-opacity=".501961" cx="0" cy="0" rx="1" ry="1" /></g></g></svg>