<svg xmlns="http://www.w3.org/2000/svg" viewBox="0 0 800 533"><filter id="b"><feGaussianBlur stdDeviation="12" /></filter><path d="M0 0h8e2v533H0z" fill="#4e5c5d" /><g filter="url(#b)" transform="scale(3.125000) translate(0.5 0.5)"><g transform="translate(228.956330 50.787003) rotate(217.440169) scale(52.681754 63.423471)"><ellipse fill="#e3ffff" fill-opacity=".501961" cx="0" cy="0" rx="1" ry="1" /></g><g transform="translate(95.118596 122.518230) rotate(177.236872) scale(63.095183 248.076797)"><ellipse fill="#0d0000" fill-opacity=".501961" cx="0" cy="0" rx="1" ry="1" /></g><ellipse fill="#8bb8d9" fill-opacity=".501961" cx="12" cy="107" rx="20" ry="169" /><g transform="translate(229.051309 40.198379) rotate(345.734008) scale(41.790696 72.278133)"><ellipse fill="#94ffff" fill-opacity=".501961" cx="0" cy="0" rx="1" ry="1" /></g><ellipse fill="#edceba" fill-opacity=".501961" cx="186" cy="63" rx="85" ry="15" /><g transform="translate(156.335389 10.752893) rotate(238.987342) scale(41.113616 24.464643)"><ellipse fill="#0c0000" fill-opacity=".501961" cx="0" cy="0" rx="1" ry="1" /></g><g transform="translate(153 116) rotate(5) scale(50 77)"><path d="M0 0h8e2v533H0z" fill="#0a0602" /></g><ellipse fill="#0095ff" fill-opacity=".501961" cx="242" cy="95" rx="32" ry="16" /></g></svg>