<svg xmlns="http://www.w3.org/2000/svg" viewBox="0 0 800 1200"><filter id="b"><feGaussianBlur stdDeviation="12" /></filter><path d="M0 0h8e2v12e2H0z" fill="#496057" /><g filter="url(#b)" transform="scale(4.687500) translate(0.5 0.5)"><g transform="translate(77.599308 208.450140) rotate(16.438728) scale(169.000000 58.745813)"><ellipse fill="#bcd7e5" fill-opacity=".501961" cx="0" cy="0" rx="1" ry="1" /></g><ellipse fill="#000600" fill-opacity=".501961" cx="95" cy="48" rx="169" ry="87" /><path d="M0 0h8e2v12e2H0z" fill="#000005" /><g transform="translate(141 155) rotate(277) scale(8 68)"><path d="M0 0h8e2v12e2H0z" fill="#cae8ff" /></g><g transform="translate(84.398313 210.999977) rotate(281.212440) scale(27.621633 78.566892)"><ellipse fill="#adc1c3" fill-opacity=".501961" cx="0" cy="0" rx="1" ry="1" /></g><g transform="translate(35.034251 248.145030) rotate(337.609226) scale(4.286752 83.560775)"><ellipse fill="#fff" fill-opacity=".501961" cx="0" cy="0" rx="1" ry="1" /></g><ellipse fill="#001700" fill-opacity=".501961" cx="64" cy="5" rx="169" ry="35" /><g transform="translate(85 255) rotate(343) scale(9 66)"><path d="M0 0h8e2v12e2H0z" fill="#fff" /></g></g></svg>