<svg xmlns="http://www.w3.org/2000/svg" viewBox="0 0 800 533"><filter id="b"><feGaussianBlur stdDeviation="12" /></filter><path d="M0 0h8e2v533H0z" fill="#35524f" /><g filter="url(#b)" transform="scale(3.125000) translate(0.5 0.5)"><path fill="#9dcdcc" fill-opacity=".501961" d="M264 114 67 54 271 33z" /><ellipse fill="#000" fill-opacity=".501961" cx="4" cy="101" rx="70" ry="70" /><g transform="translate(141.846391 126.992262) rotate(236.767187) scale(40.502700 30.569051)"><ellipse fill="#51a4bd" fill-opacity=".501961" cx="0" cy="0" rx="1" ry="1" /></g><g transform="translate(220.353676 140.757074) rotate(52.532446) scale(59.585133 31.169097)"><ellipse fill="#00041a" fill-opacity=".501961" cx="0" cy="0" rx="1" ry="1" /></g><path d="M0 0h8e2v533H0z" fill="#fff" /><g transform="translate(86.324705 89.739503) rotate(219.304187) scale(29.176323 32.851439)"><ellipse fill="#584700" fill-opacity=".501961" cx="0" cy="0" rx="1" ry="1" /></g><g transform="translate(177.030352 0.000000) rotate(174.607258) scale(43.584292 27.483899)"><ellipse fill="#050100" fill-opacity=".501961" cx="0" cy="0" rx="1" ry="1" /></g><g transform="translate(18.593353 16.112661) rotate(100.294715) scale(18.366366 69.543091)"><ellipse fill="#0c1b04" fill-opacity=".501961" cx="0" cy="0" rx="1" ry="1" /></g></g></svg>