<svg xmlns="http://www.w3.org/2000/svg" viewBox="0 0 800 1201"><filter id="b"><feGaussianBlur stdDeviation="12" /></filter><path d="M0 0h8e2v1201H0z" fill="#304d41" /><g filter="url(#b)" transform="scale(4.691406) translate(0.5 0.5)"><g transform="translate(60.430764 12.765436) rotate(390.317695) scale(23.741980 20.083650)"><ellipse fill="#adffff" fill-opacity=".501961" cx="0" cy="0" rx="1" ry="1" /></g><ellipse fill="#000600" fill-opacity=".501961" cx="165" cy="203" rx="58" ry="58" /><path fill="#8bffff" fill-opacity=".501961" d="M108-16h33L126 28z" /><ellipse fill="#7ef1ff" fill-opacity=".501961" cx="61" cy="8" rx="18" ry="23" /><ellipse fill="#96ffff" fill-opacity=".501961" cx="0" cy="23" rx="4" ry="29" /><g transform="translate(50.718128 210.872779) rotate(10.246444) scale(20.484721 61.519856)"><ellipse fill="#687b4b" fill-opacity=".501961" cx="0" cy="0" rx="1" ry="1" /></g><g transform="translate(29 136) rotate(266) scale(39 64)"><path d="M0 0h8e2v1201H0z" fill="#121403" /></g><g transform="translate(12.071726 112.258211) rotate(347.988204) scale(31.318789 3.077148)"><ellipse fill="#b2e5e3" fill-opacity=".501961" cx="0" cy="0" rx="1" ry="1" /></g></g></svg>