<svg xmlns="http://www.w3.org/2000/svg" viewBox="0 0 800 1200"><filter id="b"><feGaussianBlur stdDeviation="12" /></filter><path d="M0 0h8e2v12e2H0z" fill="#477277" /><g filter="url(#b)" transform="scale(4.687500) translate(0.5 0.5)"><ellipse fill="#96f9ff" fill-opacity=".501961" cx="77" cy="37" rx="168" ry="53" /><g transform="translate(109.752596 193.924936) rotate(168.548308) scale(169.000000 75.784824)"><ellipse fill="#0d1600" fill-opacity=".501961" cx="0" cy="0" rx="1" ry="1" /></g><g transform="translate(74.272060 115.409234) rotate(74.293355) scale(10.049940 28.795764)"><ellipse fill="#e1fcfc" fill-opacity=".501961" cx="0" cy="0" rx="1" ry="1" /></g><ellipse fill="#6bb6ff" fill-opacity=".501961" cx="87" cy="1" rx="90" ry="90" /><path fill="#011200" fill-opacity=".501961" d="M185 43 1e2 170l67 101z" /><g transform="translate(95.467500 213.773651) rotate(292.030760) scale(20.828897 55.170810)"><ellipse fill="#6d8160" fill-opacity=".501961" cx="0" cy="0" rx="1" ry="1" /></g><path d="M0 0h8e2v12e2H0z" fill="#90cdfa" /><ellipse fill="#142e08" fill-opacity=".501961" cx="17" cy="152" rx="65" ry="23" /></g></svg>