<svg xmlns="http://www.w3.org/2000/svg" viewBox="0 0 800 533"><filter id="b"><feGaussianBlur stdDeviation="12" /></filter><path d="M0 0h8e2v533H0z" fill="#335355" /><g filter="url(#b)" transform="scale(3.125000) translate(0.5 0.5)"><g transform="translate(72.774017 19.583812) rotate(156.268972) scale(161.558112 48.624574)"><ellipse fill="#eaffff" fill-opacity=".501961" cx="0" cy="0" rx="1" ry="1" /></g><g transform="translate(171.690961 124.349079) rotate(-17.402364) scale(222.820101 72.601937)"><ellipse fill="#000" fill-opacity=".501961" cx="0" cy="0" rx="1" ry="1" /></g><ellipse fill="#9effff" fill-opacity=".501961" cx="52" cy="6" rx="63" ry="81" /><ellipse fill="#7edeff" fill-opacity=".501961" cx="152" cy="21" rx="57" ry="19" /><g transform="translate(113.288800 70.455739) rotate(47.100766) scale(23.459539 35.761188)"><ellipse fill="#2d7e5e" fill-opacity=".501961" cx="0" cy="0" rx="1" ry="1" /></g><path d="M0 0h8e2v533H0z" fill="#000300" /><g transform="translate(158 31) rotate(373) scale(15 23)"><path d="M0 0h8e2v533H0z" fill="#001700" /></g><g transform="translate(54 141) rotate(122) scale(89 80)"><path d="M0 0h8e2v533H0z" fill="#000500" /></g></g></svg>