<svg xmlns="http://www.w3.org/2000/svg" viewBox="0 0 800 530"><filter id="b"><feGaussianBlur stdDeviation="12" /></filter><path d="M0 0h8e2v530H0z" fill="#43503b" /><g filter="url(#b)" transform="scale(3.125000) translate(0.5 0.5)"><g transform="translate(117.513585 75.319725) rotate(191.966637) scale(48.034136 45.364006)"><ellipse fill="#fff" fill-opacity=".501961" cx="0" cy="0" rx="1" ry="1" /></g><g transform="translate(214.504475 73.784308) rotate(356.623677) scale(53.468395 151.295408)"><ellipse fill="#000" fill-opacity=".501961" cx="0" cy="0" rx="1" ry="1" /></g><g transform="translate(121.057309 83.369633) rotate(347.740401) scale(42.392599 31.240061)"><ellipse fill="#fff" fill-opacity=".501961" cx="0" cy="0" rx="1" ry="1" /></g><g transform="translate(134 14) rotate(41) scale(37 34)"><path d="M0 0h8e2v530H0z" fill="#e9ffff" /></g><g transform="translate(150.823729 136.552868) rotate(44.545260) scale(26.835898 10.432682)"><ellipse fill="#ffe9d6" fill-opacity=".501961" cx="0" cy="0" rx="1" ry="1" /></g><g transform="translate(5.656663 91.490975) rotate(1.950660) scale(46.765074 65.113386)"><ellipse fill="#011200" fill-opacity=".501961" cx="0" cy="0" rx="1" ry="1" /></g><g transform="translate(111.993647 40.948799) rotate(159.844871) scale(13.904704 19.386120)"><ellipse fill="#063400" fill-opacity=".501961" cx="0" cy="0" rx="1" ry="1" /></g><g transform="translate(102.684306 160.381795) rotate(159.662477) scale(25.600545 12.428924)"><ellipse fill="#dbcf92" fill-opacity=".501961" cx="0" cy="0" rx="1" ry="1" /></g></g></svg>