<svg xmlns="http://www.w3.org/2000/svg" viewBox="0 0 800 530"><filter id="b"><feGaussianBlur stdDeviation="12" /></filter><path d="M0 0h8e2v530H0z" fill="#6d6f5e" /><g filter="url(#b)" transform="scale(3.125000) translate(0.5 0.5)"><g transform="translate(77.338536 160.230710) rotate(402.965289) scale(68.341821 89.367545)"><ellipse fill="#fff" fill-opacity=".501961" cx="0" cy="0" rx="1" ry="1" /></g><g transform="translate(224.924529 63.764977) rotate(252.026973) scale(211.139826 83.223650)"><ellipse fill="#000" fill-opacity=".501961" cx="0" cy="0" rx="1" ry="1" /></g><g transform="translate(54.709871 0.000000) rotate(370.396427) scale(59.735547 38.558832)"><ellipse fill="#fff" fill-opacity=".501961" cx="0" cy="0" rx="1" ry="1" /></g><g transform="translate(151.021759 121.815619) rotate(190.223986) scale(34.457894 16.263494)"><ellipse fill="#001d1a" fill-opacity=".501961" cx="0" cy="0" rx="1" ry="1" /></g><ellipse fill="#001601" fill-opacity=".501961" cx="20" cy="89" rx="34" ry="34" /><g transform="translate(109.430122 154.282522) rotate(19.179331) scale(79.358327 24.526503)"><ellipse fill="#fffff7" fill-opacity=".501961" cx="0" cy="0" rx="1" ry="1" /></g><ellipse fill="#000d00" fill-opacity=".501961" cx="238" cy="145" rx="55" ry="168" /><g transform="translate(77.311637 7.512637) rotate(252.860515) scale(26.813675 38.206222)"><ellipse fill="#f4ffff" fill-opacity=".501961" cx="0" cy="0" rx="1" ry="1" /></g></g></svg>