<svg xmlns="http://www.w3.org/2000/svg" viewBox="0 0 800 530"><filter id="b"><feGaussianBlur stdDeviation="12" /></filter><path d="M0 0h8e2v530H0z" fill="#43503b" /><g filter="url(#b)" transform="scale(3.125000) translate(0.5 0.5)"><ellipse fill="#fff" fill-opacity=".501961" cx="113" cy="73" rx="50" ry="44" /><ellipse fill="#fff" fill-opacity=".501961" cx="129" cy="79" rx="35" ry="35" /><g transform="translate(211.789864 66.312342) rotate(176.383916) scale(51.466763 165.143053)"><ellipse fill="#000" fill-opacity=".501961" cx="0" cy="0" rx="1" ry="1" /></g><g transform="translate(138 15) rotate(221) scale(29 31)"><path d="M0 0h8e2v530H0z" fill="#feffff" /></g><g transform="translate(156 138) rotate(132) scale(14 52)"><path d="M0 0h8e2v530H0z" fill="#fff8ea" /></g><g transform="translate(0.000000 100.652021) rotate(310.825859) scale(63.976300 49.897412)"><ellipse fill="#000f00" fill-opacity=".501961" cx="0" cy="0" rx="1" ry="1" /></g><ellipse fill="#002800" fill-opacity=".501961" cx="111" cy="42" rx="14" ry="17" /><path fill="#000" fill-opacity=".501961" d="M17 60 93 48 82 67z" /></g></svg>