<svg xmlns="http://www.w3.org/2000/svg" viewBox="0 0 800 530"><filter id="b"><feGaussianBlur stdDeviation="12" /></filter><path d="M0 0h8e2v530H0z" fill="#6d6f5e" /><g filter="url(#b)" transform="scale(3.125000) translate(0.5 0.5)"><g transform="translate(80.747438 162.139019) rotate(-51.609165) scale(90.004450 66.955732)"><ellipse fill="#fff" fill-opacity=".501961" cx="0" cy="0" rx="1" ry="1" /></g><ellipse fill="#000" fill-opacity=".501961" cx="223" cy="59" rx="114" ry="114" /><g transform="translate(58.528555 4.018906) rotate(364.833689) scale(59.432239 33.441230)"><ellipse fill="#fff" fill-opacity=".501961" cx="0" cy="0" rx="1" ry="1" /></g><ellipse fill="#d9d7c6" fill-opacity=".501961" cx="110" cy="87" rx="36" ry="38" /><g transform="translate(107.295489 146.498364) rotate(113.388722) scale(25.641091 78.582685)"><ellipse fill="#fffdf2" fill-opacity=".501961" cx="0" cy="0" rx="1" ry="1" /></g><ellipse fill="#031e08" fill-opacity=".501961" cx="24" cy="87" rx="34" ry="34" /><ellipse fill="#000200" fill-opacity=".501961" cx="250" cy="105" rx="66" ry="66" /><g transform="translate(49.670052 156.381182) rotate(285.303733) scale(33.045919 62.528180)"><ellipse fill="#ffd5c6" fill-opacity=".501961" cx="0" cy="0" rx="1" ry="1" /></g></g></svg>