<svg xmlns="http://www.w3.org/2000/svg" viewBox="0 0 800 530"><filter id="b"><feGaussianBlur stdDeviation="12" /></filter><path d="M0 0h8e2v530H0z" fill="#91a09b" /><g filter="url(#b)" transform="scale(3.125000) translate(0.5 0.5)"><g transform="translate(168.236649 71.823789) rotate(92.622768) scale(38.469805 88.896313)"><ellipse fill="#d9fdff" fill-opacity=".501961" cx="0" cy="0" rx="1" ry="1" /></g><g transform="translate(128.107465 148.532152) rotate(364.212131) scale(153.363646 41.220500)"><ellipse fill="#925f34" fill-opacity=".501961" cx="0" cy="0" rx="1" ry="1" /></g><g transform="translate(30.604497 16.262141) rotate(-14.984154) scale(51.305692 26.759424)"><ellipse fill="#027eb3" fill-opacity=".501961" cx="0" cy="0" rx="1" ry="1" /></g><g transform="translate(211.895864 19.895843) rotate(14.899252) scale(135.224476 33.172793)"><ellipse fill="#3aa2ce" fill-opacity=".501961" cx="0" cy="0" rx="1" ry="1" /></g><path fill="#141b11" fill-opacity=".501961" d="M123 135l82 49-53-70z" /><g transform="translate(26.436616 123.720309) rotate(119.716827) scale(47.984784 100.712833)"><ellipse fill="#bc966f" fill-opacity=".501961" cx="0" cy="0" rx="1" ry="1" /></g><path fill="#1f2d1e" fill-opacity=".501961" d="M254 181l17-66-80 60z" /><path d="M0 0h8e2v530H0z" fill="#c9e5ea" /></g></svg>