<svg xmlns="http://www.w3.org/2000/svg" viewBox="0 0 800 530"><filter id="b"><feGaussianBlur stdDeviation="12" /></filter><path d="M0 0h8e2v530H0z" fill="#758576" /><g filter="url(#b)" transform="scale(3.125000) translate(0.5 0.5)"><ellipse fill="#fff" fill-opacity=".501961" cx="90" cy="43" rx="109" ry="58" /><ellipse fill="#000" fill-opacity=".501961" cx="240" cy="153" rx="240" ry="54" /><g transform="translate(238.395093 44.174107) rotate(254.909909) scale(217.888617 30.041814)"><ellipse fill="#000" fill-opacity=".501961" cx="0" cy="0" rx="1" ry="1" /></g><ellipse fill="#fef5d1" fill-opacity=".501961" cx="181" cy="92" rx="31" ry="46" /><g transform="translate(237.777439 34.263162) rotate(204.500758) scale(43.575963 38.316397)"><ellipse fill="#000e00" fill-opacity=".501961" cx="0" cy="0" rx="1" ry="1" /></g><ellipse fill="#eff" fill-opacity=".501961" cx="159" cy="24" rx="28" ry="61" /><g transform="translate(0.000000 135.068380) rotate(341.352281) scale(65.748750 6.811862)"><ellipse fill="#fff" fill-opacity=".501961" cx="0" cy="0" rx="1" ry="1" /></g><g transform="translate(75.292193 47.259767) rotate(246.778041) scale(42.344163 33.212857)"><ellipse fill="#eff" fill-opacity=".501961" cx="0" cy="0" rx="1" ry="1" /></g></g></svg>