<svg xmlns="http://www.w3.org/2000/svg" viewBox="0 0 800 530"><filter id="b"><feGaussianBlur stdDeviation="12" /></filter><path d="M0 0h8e2v530H0z" fill="#91a09b" /><g filter="url(#b)" transform="scale(3.125000) translate(0.5 0.5)"><g transform="translate(170.748756 74.960142) rotate(94.824080) scale(36.923400 88.893810)"><ellipse fill="#dfffff" fill-opacity=".501961" cx="0" cy="0" rx="1" ry="1" /></g><g transform="translate(124.615057 150.804381) rotate(272.719647) scale(42.974730 153.539573)"><ellipse fill="#915e32" fill-opacity=".501961" cx="0" cy="0" rx="1" ry="1" /></g><ellipse fill="#3a9bc3" fill-opacity=".501961" cx="161" cy="6" rx="255" ry="43" /><g transform="translate(152.641715 139.459404) rotate(233.395827) scale(20.754832 11.332211)"><ellipse fill="#000" fill-opacity=".501961" cx="0" cy="0" rx="1" ry="1" /></g><g transform="translate(42.982676 136.391833) rotate(4.637041) scale(91.000860 61.660983)"><ellipse fill="#be9974" fill-opacity=".501961" cx="0" cy="0" rx="1" ry="1" /></g><g transform="translate(252.540913 153.823186) rotate(215.991141) scale(18.305588 34.743994)"><ellipse fill="#0e1f15" fill-opacity=".501961" cx="0" cy="0" rx="1" ry="1" /></g><ellipse fill="#c7d8db" fill-opacity=".501961" cx="101" cy="63" rx="65" ry="32" /><g transform="translate(0.000000 20.295671) rotate(233.109904) scale(25.569079 130.297752)"><ellipse fill="#0e6b93" fill-opacity=".501961" cx="0" cy="0" rx="1" ry="1" /></g></g></svg>