<svg xmlns="http://www.w3.org/2000/svg" viewBox="0 0 800 530"><filter id="b"><feGaussianBlur stdDeviation="12" /></filter><path d="M0 0h8e2v530H0z" fill="#88a9b2" /><g filter="url(#b)" transform="scale(3.125000) translate(0.5 0.5)"><g transform="translate(16.349601 143.317318) rotate(196.428032) scale(42.551019 23.240237)"><ellipse fill="#260300" fill-opacity=".501961" cx="0" cy="0" rx="1" ry="1" /></g><ellipse fill="#e4e7e0" fill-opacity=".501961" cx="145" cy="146" rx="97" ry="97" /><ellipse fill="#0c577b" fill-opacity=".501961" cx="29" cy="18" rx="113" ry="40" /><path fill="#000" fill-opacity=".501961" d="M221.758151 170.692109 271 176.855212 261.315466 165.977237 271 108.871523z" /><g transform="translate(157.442001 0.000000) rotate(100.326127) scale(31.254524 255.000000)"><ellipse fill="#3689b3" fill-opacity=".501961" cx="0" cy="0" rx="1" ry="1" /></g><g transform="translate(106.657841 130.049166) rotate(368.909979) scale(68.351185 26.441628)"><ellipse fill="#e1eded" fill-opacity=".501961" cx="0" cy="0" rx="1" ry="1" /></g><ellipse fill="#080000" fill-opacity=".501961" cx="147" cy="147" rx="3" ry="47" /><ellipse fill="#644015" fill-opacity=".501961" cx="203" cy="165" rx="115" ry="4" /></g></svg>