<svg xmlns="http://www.w3.org/2000/svg" viewBox="0 0 320 320"><filter id="b"><feGaussianBlur stdDeviation="12" /></filter><path d="M0 0h320v320H0z" fill="#e06e54" /><g filter="url(#b)" transform="scale(1.250000) translate(0.5 0.5)"><g transform="translate(74.606455 136.173947) rotate(179.712708) scale(38.260241 26.092343)"><ellipse fill="#b9ffff" fill-opacity=".501961" cx="0" cy="0" rx="1" ry="1" /></g><ellipse fill="#b9ffff" fill-opacity=".501961" cx="180" cy="135" rx="40" ry="26" /><path fill="#08242b" fill-opacity=".501961" d="M90 103l52 46 9-46z" /><ellipse fill="#deffff" fill-opacity=".501961" cx="180" cy="135" rx="37" ry="25" /><g transform="translate(77.290003 134.263195) rotate(169.709318) scale(37.454929 23.027399)"><ellipse fill="#d6ffff" fill-opacity=".501961" cx="0" cy="0" rx="1" ry="1" /></g><path fill="#001d29" fill-opacity=".501961" d="M208.041006 100.689477 132.539117 111.988387 237.608398 112.205021 219.012375 156.55799z" /><ellipse fill="#000814" fill-opacity=".501961" cx="77" cy="164" rx="35" ry="5" /><path fill="#001e2a" fill-opacity=".501961" d="M39.351081 146.740598 26.74355 159.064608 54.613424 102.152995 18.686387 113.723119z" /></g></svg>